<?xml version="1.0" encoding="utf-8"?>
<!-- Generator: Adobe Illustrator 16.0.4, SVG Export Plug-In . SVG Version: 6.00 Build 0)  -->
<!DOCTYPE svg PUBLIC "-//W3C//DTD SVG 1.1//EN" "http://www.w3.org/Graphics/SVG/1.1/DTD/svg11.dtd">
<svg version="1.1" id="Layer_1" xmlns="http://www.w3.org/2000/svg" xmlns:xlink="http://www.w3.org/1999/xlink" x="0px" y="0px"
	 width="506.5px" height="73px" viewBox="0 0 506.5 73" enable-background="new 0 0 506.5 73" xml:space="preserve">
<g>
	<path fill="#FFFFFF" d="M202.088,19.564c-3.645,0-6.836,1.344-9.574,4.033c-2.738,2.688-4.635,6.512-5.69,11.47
		s-0.787,8.782,0.807,11.47c1.593,2.688,4.212,4.033,7.856,4.033s6.825-1.344,9.543-4.033s4.605-6.512,5.661-11.47
		c1.035-4.938,0.771-8.757-0.792-11.455C208.336,20.914,205.732,19.564,202.088,19.564z"/>
	<path fill="#FFFFFF" d="M254.152,21.656c-0.896-0.518-2.34-0.656-4.332-0.656h-10.693l-2.509,12h10.425
		c2.071,0,3.674-0.445,4.809-0.923c2.011-0.837,3.287-2.532,3.824-5.001C256.232,24.408,255.725,22.572,254.152,21.656z"/>
	<path fill="#FFFFFF" d="M66.746,21.566C65.451,21.109,63.738,21,61.608,21H51.93l-2.061,9h10.813c1.931,0,3.579-0.129,4.943-0.856
		c1.364-0.727,2.245-1.839,2.644-3.691C68.687,23.401,68.179,22.224,66.746,21.566z"/>
	<path fill="#FFFFFF" d="M63.58,38.625C62.624,38.146,61.19,38,59.278,38H48.315l-2.479,11h10.813c1.931,0,3.484-0.011,4.66-0.529
		c2.17-0.956,3.544-2.603,4.122-5.311C65.909,40.87,65.292,39.481,63.58,38.625z"/>
	<path fill="#FFFFFF" d="M18.5,0l-16,73h487L504,0H18.5z M77.26,24.523c-0.578,2.688-1.723,4.85-3.435,6.482
		c-0.936,0.917-2.221,1.753-3.853,2.509c2.071,0.817,3.49,2.111,4.256,3.883s0.881,3.923,0.344,6.452
		c-0.558,2.609-1.713,4.949-3.465,7.02c-1.135,1.374-2.43,2.529-3.883,3.465c-1.633,1.075-3.45,1.741-5.452,2.14
		C59.771,56.872,57.645,57,55.395,57H35.441l9.35-44h21.387c5.376,0,8.861,1.699,10.455,4.746
		C77.588,19.618,77.798,21.915,77.26,24.523z M119.706,21H96.407l-1.971,9h21.387l-1.643,8H92.792l-2.39,11h24.375l-1.673,8H79.739
		l9.349-44h32.29L119.706,21z M171.262,31l-1.613,8h-19.326l-3.913,18h-9.141l9.32-44h31.214l-1.643,8h-22.074l-2.15,10H171.262z
		 M219.891,35.067c-1.693,7.906-5.208,13.96-10.544,18.161c-4.043,3.425-9.21,5.138-15.503,5.138s-10.743-1.712-13.352-5.138
		c-3.564-4.201-4.5-10.255-2.808-18.161c1.712-8.065,5.228-14.118,10.544-18.161c4.042-3.425,9.209-5.138,15.502-5.138
		c6.292,0,10.743,1.713,13.352,5.138C220.667,20.949,221.604,27.002,219.891,35.067z M265.174,25.658
		c-0.457,2.091-1.428,4.147-2.912,6.168c-1.482,2.021-3.529,3.45-6.139,4.286c1.854,0.817,3.043,1.977,3.57,3.48
		c0.527,1.504,0.463,3.799-0.193,6.885l-0.629,2.957c-0.418,2.012-0.627,3.375-0.627,4.092c0,1.135,0.379,1.9,1.135,2.438L259.17,57
		h-10.125c-0.08-1-0.12-1.691-0.12-2.289c0.02-1.234,0.159-2.463,0.418-3.758l0.806-4.075c0.558-2.808,0.443-4.609-0.343-5.545
		c-0.787-0.936-2.534-1.333-5.242-1.333h-9.499l-3.644,17h-8.991l9.35-44h21.596c3.066,0,5.357,0.494,6.871,1.191
		s2.707,1.75,3.584,3.104c0.717,1.116,1.209,2.364,1.479,3.718C265.578,22.369,265.533,23.926,265.174,25.658z M300.242,57
		l6.303-29.71c0.198-0.856,0.473-2.021,0.821-3.564c0.349-1.543,0.603-2.786,0.762-3.622L291.968,57h-8.931l-0.448-36.879
		c-0.16,0.836-0.394,2.062-0.702,3.604c-0.309,1.544-0.562,2.691-0.762,3.547L274.822,57h-8.572l9.349-44h13.383l0.627,34.62
		L304.932,13h13.232l-9.349,44H300.242z M348.363,57h-31.005l9.349-44h9.2l-7.677,36h21.806L348.363,57z M391.078,30l-1.643,8
		h-21.387l-2.39,11h24.374l-1.673,8h-33.365l9.35-44h32.29l-1.673,8h-23.299l-1.972,9H391.078z M434.629,26h-8.841
		c0.418-2-0.329-4.417-2.241-5.533c-1.274-0.736-2.977-1.048-5.107-1.048c-2.37,0-4.366,0.506-5.989,1.461
		c-1.623,0.956-2.613,2.305-2.972,4.017c-0.339,1.573,0.109,2.755,1.344,3.532c0.777,0.518,2.559,1.129,5.347,1.826l7.199,1.824
		c3.146,0.796,5.426,1.863,6.84,3.197c2.19,2.071,2.868,5.069,2.031,8.992c-0.856,4.022-3.106,7.363-6.75,10.022
		c-3.645,2.658-8.274,3.988-13.89,3.988c-5.735,0-9.968-1.085-12.695-3.704C396.176,51.955,395.3,48,396.275,44h8.782
		c-0.14,2,0.09,3.29,0.687,4.286c1.115,1.812,3.485,2.606,7.109,2.606c2.171,0,3.982-0.295,5.437-0.773
		c2.768-0.916,4.411-2.647,4.929-5.136c0.318-1.453-0.08-2.592-1.194-3.389c-1.096-0.776-2.948-1.471-5.557-2.068l-4.45-1.049
		c-4.361-1.035-7.289-2.162-8.782-3.377c-2.529-2.031-3.336-5.208-2.419-9.529c0.836-3.943,2.967-7.219,6.392-9.828
		c3.425-2.608,7.916-3.914,13.472-3.914c4.64,0,8.334,1.117,11.082,3.576C434.51,17.864,435.466,22,434.629,26z M475.432,26h-8.841
		c0.418-2-0.329-4.417-2.241-5.533c-1.274-0.736-2.977-1.048-5.107-1.048c-2.37,0-4.366,0.506-5.989,1.461
		c-1.623,0.956-2.613,2.305-2.972,4.017c-0.339,1.573,0.109,2.755,1.344,3.532c0.777,0.518,2.559,1.129,5.347,1.826l7.199,1.824
		c3.146,0.796,5.426,1.863,6.84,3.197c2.19,2.071,2.868,5.069,2.031,8.992c-0.856,4.022-3.106,7.363-6.75,10.022
		c-3.645,2.658-8.274,3.988-13.89,3.988c-5.735,0-9.968-1.085-12.695-3.704C436.979,51.955,436.103,48,437.078,44h8.782
		c-0.14,2,0.09,3.29,0.687,4.286c1.115,1.812,3.485,2.606,7.109,2.606c2.171,0,3.982-0.295,5.437-0.773
		c2.768-0.916,4.411-2.647,4.929-5.136c0.318-1.453-0.08-2.592-1.194-3.389c-1.096-0.776-2.948-1.471-5.557-2.068l-4.45-1.049
		c-4.361-1.035-7.289-2.162-8.782-3.377c-2.529-2.031-3.336-5.208-2.419-9.529c0.836-3.943,2.967-7.219,6.392-9.828
		c3.425-2.608,7.916-3.914,13.472-3.914c4.64,0,8.334,1.117,11.082,3.576C475.312,17.864,476.269,22,475.432,26z"/>
</g>
</svg>
