<?xml version="1.0" encoding="utf-8"?>
<!-- Generator: Adobe Illustrator 16.0.4, SVG Export Plug-In . SVG Version: 6.00 Build 0)  -->
<!DOCTYPE svg PUBLIC "-//W3C//DTD SVG 1.1//EN" "http://www.w3.org/Graphics/SVG/1.1/DTD/svg11.dtd">
<svg version="1.1" id="Layer_1" xmlns="http://www.w3.org/2000/svg" xmlns:xlink="http://www.w3.org/1999/xlink" x="0px" y="0px"
	 width="500px" height="143px" viewBox="0 0 500 143" enable-background="new 0 0 500 143" xml:space="preserve">
<g>
	<path fill="#FFFFFF" d="M94.353,11.946c0,2.146-0.877,4.633-2.633,7.46c-1.463,2.633-3.097,4.439-4.9,5.413
		c-1.806,0.976-2.707,0.878-2.707-0.292c0-0.096,0.535-0.681,1.609-1.755c3.218-3.021,4.827-5.508,4.827-7.46
		c0-4.192-4.146-6.29-12.434-6.29c-3.511,0-8.144,0.658-13.897,1.975c-5.755,1.316-11.314,3.438-16.676,6.363
		c-6.242,3.415-9.362,6.389-9.362,8.923c0,2.048,1.901,4,5.705,5.852c2.048,0.976,6.119,2.61,12.215,4.9
		c6.094,2.292,11.02,4.292,14.775,5.998c3.753,1.708,7.314,4.121,10.678,7.241c3.365,3.122,5.047,6.583,5.047,10.386
		c0,3.804-2.245,7.95-6.729,12.434c-6.827,6.535-15.703,11.973-26.624,16.311c-10.923,4.338-20.285,6.51-28.086,6.51
		c-15.41,0-23.113-4.341-23.113-13.02s4.729-16.041,14.189-22.089c7.801-5.362,15.993-8.045,24.576-8.045
		c2.048,0,2.974,0.343,2.779,1.024c-0.196,0.683-1.659,1.049-4.388,1.097c-2.731,0.05-6.242,0.976-10.533,2.779
		c-4.292,1.806-8.29,4.414-11.995,7.826c-4.877,4.388-7.314,8.777-7.314,13.166c0,2.731,1.316,5.17,3.95,7.314
		c2.633,2.146,7.654,3.218,15.067,3.218c7.41,0,14.725-1.17,21.942-3.511c15.602-5.168,25.355-10.825,29.257-16.969
		c1.559-2.242,2.34-4.144,2.34-5.705c0-4.485-2.731-7.996-8.192-10.533c-6.34-2.925-15.213-6.29-26.624-10.093
		c-4.388-1.463-8.119-3.388-11.19-5.778c-3.072-2.389-4.608-5.266-4.608-8.631c0-3.364,1.829-6.679,5.485-9.947
		c3.657-3.266,8.069-5.874,13.239-7.826C61.147,5.999,70.557,3.9,78.262,3.9C88.989,3.9,94.353,6.584,94.353,11.946z"/>
	<path fill="#FFFFFF" d="M142.626,3.608c1.755-0.681,3.267-1.024,4.535-1.024c4.29,0,7.117,1.17,8.484,3.511
		c0.779,1.17,1.17,2.194,1.17,3.072c0,6.633-5.559,14.971-16.676,25.015c-9.851,8.681-18.921,16.141-27.208,22.381
		c-2.731,6.144-5.559,13.703-8.484,22.674c3.511-4.29,7.947-9.264,13.312-14.921c10.825-11.213,18.381-16.823,22.674-16.823
		c2.144,0,3.267,1.074,3.365,3.218c0.194,2.245-0.27,4.389-1.39,6.437c-1.122,2.048-2.171,3.95-3.145,5.705
		c-4.585,7.607-6.875,14.386-6.875,20.333c0,1.952,0.389,3.364,1.17,4.242c1.364,1.561,3.314,1.659,5.851,0.292
		c2.535-1.364,6.071-4.096,10.606-8.192c4.535-4.096,8.214-8.093,11.044-11.995c0.487-0.487,0.951-0.608,1.39-0.366
		c0.438,0.245,0.658,0.489,0.658,0.731c0,0.245-0.099,0.512-0.292,0.805c-1.463,2.633-4.096,5.975-7.899,10.02
		c-3.804,4.048-6.875,6.949-9.216,8.704c-4.487,3.413-8.777,5.12-12.873,5.12c-3.708,0-6.194-1.854-7.46-5.559
		c-0.292-0.877-0.439-1.924-0.439-3.145c0-1.218,0.096-2.51,0.292-3.876c0.487-4.096,3.072-10.482,7.753-19.163
		c0.974-1.755,1.463-2.999,1.463-3.73s-0.391-1.097-1.17-1.097c-1.562,0-4.585,1.952-9.07,5.852
		c-3.024,2.83-7.485,8.169-13.385,16.018c-5.902,7.851-9.241,12.018-10.021,12.507c-3.511,1.755-5.682,2.633-6.51,2.633
		c-0.83,0-1.293-0.124-1.39-0.366c-0.098-0.244-0.05-0.562,0.146-0.951c0.194-0.391,0.974-2.535,2.34-6.437
		c4.583-12.969,7.703-21.552,9.362-25.746c-3.218,4.096-7.218,8.729-11.995,13.896c-0.782,0.782-1.17,0.61-1.17-0.512
		c0-1.12,0.439-2.268,1.316-3.438c0.878-1.17,2.707-3.438,5.486-6.802c2.779-3.365,4.754-5.875,5.924-7.534
		c-0.877-0.487-1.342-1.17-1.39-2.048c-0.05-0.878,0.242-1.486,0.878-1.829c0.633-0.341,1.682-0.22,3.145,0.366
		c0.974-1.365,1.851-2.875,2.633-4.535C121.17,22.09,132.19,7.608,142.626,3.608z M150.818,14.579
		c1.267-2.34,1.902-4.315,1.902-5.924c0-1.609-0.708-2.414-2.121-2.414c-1.415,0-3.292,0.878-5.632,2.633
		c-10.729,8.192-20.432,21.895-29.11,41.105c6.338-4.096,12.969-9.556,19.895-16.384C142.674,26.771,147.696,20.431,150.818,14.579z
		"/>
	<path fill="#FFFFFF" d="M166.469,90.792c-1.561,0-3.243-0.464-5.047-1.39c-1.806-0.925-3.342-2.242-4.608-3.95
		c-1.269-1.705-1.902-3.533-1.902-5.485c0-1.95,0.439-3.803,1.317-5.559c1.95-4.096,5.095-8.069,9.435-11.922
		c4.338-3.851,8.85-7.143,13.531-9.874c4.681-2.729,8.386-4.437,11.118-5.12c2.729-0.681,5.387-1.024,7.972-1.024
		c2.583,0,4.802,0.658,6.656,1.975c1.851,1.316,2.779,2.706,2.779,4.169c0,0.489-0.05,0.782-0.146,0.877
		c-0.098,0.099-0.343,0.05-0.731-0.146c-1.17-1.852-3.584-2.779-7.241-2.779c-3.657,0-7.803,1.195-12.434,3.584
		c-4.633,2.391-8.997,5.39-13.092,8.996c-3.415,3.218-6.414,6.853-8.997,10.898c-2.585,4.048-3.876,6.999-3.876,8.85
		c0,3.609,1.024,5.412,3.072,5.412s5.168-1.657,9.362-4.974c6.923-5.851,11.652-10.141,14.189-12.873
		c8.971-9.655,13.798-14.482,14.482-14.482c1.17,0,2.583,0.343,4.242,1.024c1.657,0.683,2.194,1.513,1.609,2.487
		c-4.974,7.021-7.899,14.093-8.777,21.211c-0.098,0.877-0.146,2-0.146,3.364c0,1.367,0.388,2.487,1.17,3.365
		c1.463,1.561,3.461,1.659,5.998,0.292c2.535-1.364,6.07-4.096,10.605-8.192c4.535-4.096,8.167-8.093,10.898-11.995
		c0.389-0.487,0.828-0.608,1.316-0.366c0.487,0.245,0.731,0.464,0.731,0.658c0,1.463-2.317,4.658-6.948,9.582
		c-4.633,4.926-8.169,8.265-10.605,10.021c-4.585,3.413-8.828,5.12-12.727,5.12c-3.707,0-6.194-1.854-7.46-5.559
		c-0.292-1.17-0.438-2.487-0.438-3.95c0-4.388,0.926-9.019,2.779-13.897c-0.391,0.197-2.194,2.146-5.413,5.852
		c-3.218,3.708-6.948,7.266-11.19,10.679C173.71,89.087,169.882,90.792,166.469,90.792z"/>
	<path fill="#FFFFFF" d="M271.938,58.757c0,4.292-1.755,8.656-5.266,13.092c-3.512,4.438-7.657,8.315-12.435,11.629
		c-4.389,2.83-8.85,5.024-13.385,6.583c-4.535,1.559-7.95,2.34-10.24,2.34c-2.293,0-4.169-0.244-5.632-0.731
		c-2.146,4.974-5.12,13.312-8.923,25.014c-0.389,1.267-0.608,2.853-0.659,4.755c-0.048,1.901-0.633,4.484-1.755,7.753
		c-1.12,3.266-2.217,5.874-3.291,7.826c-0.487,1.17-1.902,2.121-4.242,2.853c-2.341,0.731-3.998,1.097-4.974,1.097
		c-0.974,0-1.463-0.489-1.463-1.463c0-0.391,0.146-0.928,0.438-1.609c4.487-9.167,10.144-22.65,16.969-40.447
		c6.825-17.796,10.58-27.67,11.264-29.622c0.681-1.95,1.657-4.777,2.926-8.484c2.144-6.24,3.314-10.921,3.511-14.043
		c0-1.17,1.559-1.756,4.681-1.756c3.12,0,4.681,1.123,4.681,3.365c0,1.659-0.951,3.975-2.852,6.948
		c-1.902,2.976-4.707,8.901-8.412,17.773c5.655-8.58,10.24-14.189,13.75-16.822c4.681-3.804,9.216-5.705,13.605-5.705
		c1.755,0,3.511,0.292,5.266,0.877c3.804,1.367,5.899,3.561,6.29,6.583C271.888,57.344,271.938,58.076,271.938,58.757z
		 M264.77,56.708c0-3.412-1.316-5.12-3.949-5.12c-1.562,0-4.096,0.928-7.607,2.779c-3.51,1.854-7.021,4.633-10.532,8.338
		c-3.511,3.707-6.217,7.193-8.119,10.459c-1.901,3.269-3.682,6.633-5.339,10.094c-1.659,3.462-2.633,5.485-2.925,6.071
		c5.947,0,12.482-2.583,19.602-7.753c7.117-5.167,12.434-10.774,15.944-16.822C263.794,61.732,264.77,59.049,264.77,56.708z"/>
	<path fill="#FFFFFF" d="M313.92,46.615c5.267,0,7.899,2.537,7.899,7.606c0,2.633-0.731,4.78-2.194,6.437
		c-2.438,3.609-6.389,6.754-11.849,9.436c-5.463,2.683-10.094,4.169-13.897,4.461c-1.366,0.098-2.098-0.292-2.193-1.17
		c-0.099-0.388,0.022-0.633,0.365-0.731c0.341-0.096,0.608-0.146,0.805-0.146c2.242-0.194,5.12-1.266,8.631-3.218
		c6.532-3.511,11.312-7.118,14.336-10.825c1.266-1.755,1.901-3.438,1.901-5.046c0-1.609-0.782-2.414-2.341-2.414
		c-1.269,0-2.976,0.538-5.12,1.609c-4.585,2.146-9.412,5.876-14.481,11.19c-5.072,5.317-8.389,10.51-9.947,15.58
		c-0.489,1.561-0.731,3.097-0.731,4.608c0,1.513,0.633,2.951,1.901,4.315c1.267,1.365,3.219,2.048,5.852,2.048
		c2.926,0,6.29-0.782,10.094-2.341c11.019-4.484,19.503-11.264,25.453-20.333c0.585-0.78,1.12-0.926,1.609-0.439
		c0.388,0.196,0.585,0.439,0.585,0.731s-0.146,0.635-0.439,1.024c-2.926,4.877-6.633,9.216-11.117,13.019
		c-8.681,7.41-17.115,11.117-25.307,11.117c-7.021,0-11.947-2.098-14.775-6.29c-1.074-1.657-1.608-3.657-1.608-5.998
		c0-2.34,0.633-5.12,1.901-8.338c2.437-5.559,7.654-11.264,15.652-17.115C302.898,49.541,309.239,46.615,313.92,46.615z"/>
	<path fill="#FFFFFF" d="M333.959,70.459c-1.171,3.316-1.806,5.536-1.902,6.656c-0.098,1.122-0.146,2.633-0.146,4.535
		c0,1.902,0.486,3.634,1.463,5.193c1.656,2.633,4.436,2.827,8.338,0.585c2.926-1.559,6.631-4.412,11.117-8.558
		c4.484-4.144,7.947-7.922,10.387-11.337c0.193-0.292,0.486-0.439,0.877-0.439c0.878,0,1.12,0.636,0.731,1.902
		c-1.463,2.633-4.169,5.998-8.118,10.093c-3.95,4.096-7.534,7.339-10.752,9.728c-3.219,2.389-6.437,3.583-9.655,3.583
		c-7.412,0-11.117-3.606-11.117-10.825c0-0.292,0-0.585,0-0.877c0.389-6.825,3.852-17.138,10.386-30.939
		c6.533-13.799,12.435-24.21,17.701-31.231l4.534-5.705c1.072-1.266,2.633-2.828,4.682-4.681c3.898-3.705,7.922-5.559,12.068-5.559
		c4.144,0,6.948,1.269,8.411,3.803c0.486,0.878,0.731,2.146,0.731,3.803c0,1.66-0.731,4-2.194,7.022
		C371.455,34.67,355.608,52.418,333.959,70.459z M377.551,14.579c1.171-2.144,1.756-3.803,1.756-4.974
		c0-2.048-0.83-3.072-2.487-3.072c-1.366,0-3.071,0.782-5.119,2.34c-7.804,6.048-15.36,15.604-22.675,28.671
		c-5.851,10.533-10.144,19.554-12.872,27.062c6.729-4.583,14.263-12.043,22.601-22.381
		C367.092,31.891,373.356,22.675,377.551,14.579z"/>
	<path fill="#FFFFFF" d="M394.956,46.615c5.267,0,7.899,2.537,7.899,7.606c0,2.633-0.731,4.78-2.194,6.437
		c-2.438,3.609-6.389,6.754-11.849,9.436c-5.463,2.683-10.094,4.169-13.897,4.461c-1.366,0.098-2.098-0.292-2.193-1.17
		c-0.099-0.388,0.022-0.633,0.365-0.731c0.341-0.096,0.608-0.146,0.805-0.146c2.242-0.194,5.12-1.266,8.631-3.218
		c6.532-3.511,11.312-7.118,14.336-10.825c1.266-1.755,1.901-3.438,1.901-5.046c0-1.609-0.782-2.414-2.341-2.414
		c-1.269,0-2.976,0.538-5.12,1.609c-4.585,2.146-9.412,5.876-14.481,11.19c-5.072,5.317-8.389,10.51-9.947,15.58
		c-0.489,1.561-0.731,3.097-0.731,4.608c0,1.513,0.633,2.951,1.901,4.315c1.267,1.365,3.219,2.048,5.852,2.048
		c2.926,0,6.29-0.782,10.094-2.341c11.019-4.484,19.503-11.264,25.453-20.333c0.585-0.78,1.12-0.926,1.609-0.439
		c0.388,0.196,0.585,0.439,0.585,0.731s-0.146,0.635-0.439,1.024c-2.926,4.877-6.633,9.216-11.117,13.019
		c-8.681,7.41-17.115,11.117-25.307,11.117c-7.021,0-11.947-2.098-14.775-6.29c-1.074-1.657-1.608-3.657-1.608-5.998
		c0-2.34,0.633-5.12,1.901-8.338c2.437-5.559,7.654-11.264,15.652-17.115C383.935,49.541,390.275,46.615,394.956,46.615z"/>
	<path fill="#FFFFFF" d="M409.291,90.646c-1.269,1.463-1.536,2.633-0.805,3.511s1.559,1.316,2.486,1.316
		c0.926,0,1.877-0.146,2.853-0.438c4.192-1.269,8.266-3.781,12.215-7.534c3.95-3.753,5.925-7.582,5.925-11.483
		c0-2.144-2.391-4.484-7.168-7.021c-2.245-1.17-3.511-1.852-3.804-2.048c-2.633-1.755-4.292-3.511-4.974-5.267
		c-1.366,2.341-3.561,5.705-6.582,10.094c-0.684,0.782-1.317,0.951-1.902,0.512c-0.585-0.439-0.635-1.047-0.146-1.829
		c3.998-5.46,6.631-10.043,7.899-13.751c0.682-5.362,4.583-10.189,11.703-14.482c7.117-4.29,13.604-6.437,19.455-6.437
		c3.705,0,6.313,0.658,7.826,1.975c1.511,1.316,2.268,2.61,2.268,3.876c0,1.269-0.365,2.731-1.097,4.388
		c-0.731,1.66-2.22,3.218-4.462,4.681c-0.585,0.391-1.074,0.292-1.463-0.292c-0.196-0.585,0.22-1.39,1.243-2.414
		c1.024-1.024,1.683-2.414,1.976-4.169c0.292-1.755-0.489-2.828-2.341-3.218c-0.293,0-0.585,0-0.878,0
		c-3.804,0-8.558,1.415-14.263,4.242c-5.705,2.83-10.167,6.487-13.385,10.971c-1.269,1.659-1.901,3.342-1.901,5.047
		c0,1.707,1.17,3.243,3.511,4.608c0.974,0.585,2.633,1.513,4.974,2.779c2.34,1.269,3.997,2.194,4.974,2.779
		c0.974,0.585,2.144,1.513,3.511,2.779c1.364,1.269,2.096,2.439,2.194,3.511c0.486,2.926-0.878,6.144-4.097,9.655
		c-4.585,5.069-11.409,8.631-20.479,10.679c-2.048,0.487-4.121,0.731-6.217,0.731c-2.099,0-3.536-0.781-4.315-2.341
		c-0.292-0.391-0.438-1.001-0.438-1.828c0-0.83,0.779-2.172,2.34-4.023c1.463-1.463,3.804-2.875,7.022-4.242
		c0.292-0.096,0.534-0.048,0.731,0.146c0.193,0.196,0.242,0.438,0.146,0.731c-0.098,0.292-0.61,0.635-1.536,1.024
		C411.361,88.258,410.362,89.184,409.291,90.646z"/>
	<path fill="#FFFFFF" d="M452.589,90.646c-1.269,1.463-1.536,2.633-0.805,3.511s1.559,1.316,2.486,1.316
		c0.926,0,1.877-0.146,2.853-0.438c4.192-1.269,8.266-3.781,12.215-7.534c3.95-3.753,5.925-7.582,5.925-11.483
		c0-2.144-2.391-4.484-7.168-7.021c-2.245-1.17-3.511-1.852-3.804-2.048c-2.633-1.755-4.292-3.511-4.974-5.267
		c-1.366,2.341-3.561,5.705-6.582,10.094c-0.684,0.782-1.317,0.951-1.902,0.512c-0.585-0.439-0.635-1.047-0.146-1.829
		c3.998-5.46,6.631-10.043,7.899-13.751c0.682-5.362,4.583-10.189,11.703-14.482c7.117-4.29,13.604-6.437,19.455-6.437
		c3.705,0,6.313,0.658,7.826,1.975c1.511,1.316,2.268,2.61,2.268,3.876c0,1.269-0.365,2.731-1.097,4.388
		c-0.731,1.66-2.22,3.218-4.462,4.681c-0.585,0.391-1.074,0.292-1.463-0.292c-0.196-0.585,0.22-1.39,1.243-2.414
		c1.024-1.024,1.683-2.414,1.976-4.169c0.292-1.755-0.489-2.828-2.341-3.218c-0.293,0-0.585,0-0.878,0
		c-3.804,0-8.558,1.415-14.263,4.242c-5.705,2.83-10.167,6.487-13.385,10.971c-1.269,1.659-1.901,3.342-1.901,5.047
		c0,1.707,1.17,3.243,3.511,4.608c0.974,0.585,2.633,1.513,4.974,2.779c2.34,1.269,3.997,2.194,4.974,2.779
		c0.974,0.585,2.144,1.513,3.511,2.779c1.364,1.269,2.096,2.439,2.194,3.511c0.486,2.926-0.878,6.144-4.097,9.655
		c-4.585,5.069-11.409,8.631-20.479,10.679c-2.048,0.487-4.121,0.731-6.217,0.731c-2.099,0-3.536-0.781-4.315-2.341
		c-0.292-0.391-0.438-1.001-0.438-1.828c0-0.83,0.779-2.172,2.34-4.023c1.463-1.463,3.804-2.875,7.022-4.242
		c0.292-0.096,0.534-0.048,0.731,0.146c0.193,0.196,0.242,0.438,0.146,0.731c-0.098,0.292-0.61,0.635-1.536,1.024
		C454.659,88.258,453.66,89.184,452.589,90.646z"/>
</g>
</svg>
